<svg id="visual" viewBox="0 0 900 600" width="900" height="600" xmlns="http://www.w3.org/2000/svg" xmlns:xlink="http://www.w3.org/1999/xlink" version="1.1"><path d="M0 355L16.7 363.7C33.3 372.3 66.7 389.7 100 398.3C133.3 407 166.7 407 200 402.8C233.3 398.7 266.7 390.3 300 390.2C333.3 390 366.7 398 400 394C433.3 390 466.7 374 500 368.8C533.3 363.7 566.7 369.3 600 380.8C633.3 392.3 666.7 409.7 700 416.5C733.3 423.3 766.7 419.7 800 414.7C833.3 409.7 866.7 403.3 883.3 400.2L900 397L900 601L883.3 601C866.7 601 833.3 601 800 601C766.7 601 733.3 601 700 601C666.7 601 633.3 601 600 601C566.7 601 533.3 601 500 601C466.7 601 433.3 601 400 601C366.7 601 333.3 601 300 601C266.7 601 233.3 601 200 601C166.7 601 133.3 601 100 601C66.7 601 33.3 601 16.7 601L0 601Z" fill="#242124"></path><path d="M0 384L16.7 394.8C33.3 405.7 66.7 427.3 100 435.7C133.3 444 166.7 439 200 435.7C233.3 432.3 266.7 430.7 300 423.8C333.3 417 366.7 405 400 405C433.3 405 466.7 417 500 426.8C533.3 436.7 566.7 444.3 600 437.3C633.3 430.3 666.7 408.7 700 403.8C733.3 399 766.7 411 800 412.8C833.3 414.7 866.7 406.3 883.3 402.2L900 398L900 601L883.3 601C866.7 601 833.3 601 800 601C766.7 601 733.3 601 700 601C666.7 601 633.3 601 600 601C566.7 601 533.3 601 500 601C466.7 601 433.3 601 400 601C366.7 601 333.3 601 300 601C266.7 601 233.3 601 200 601C166.7 601 133.3 601 100 601C66.7 601 33.3 601 16.7 601L0 601Z" fill="#382b36"></path><path d="M0 454L16.7 450.7C33.3 447.3 66.7 440.7 100 433.2C133.3 425.7 166.7 417.3 200 417.5C233.3 417.7 266.7 426.3 300 434.3C333.3 442.3 366.7 449.7 400 449.7C433.3 449.7 466.7 442.3 500 437.2C533.3 432 566.7 429 600 429.7C633.3 430.3 666.7 434.7 700 435.2C733.3 435.7 766.7 432.3 800 428.2C833.3 424 866.7 419 883.3 416.5L900 414L900 601L883.3 601C866.7 601 833.3 601 800 601C766.7 601 733.3 601 700 601C666.7 601 633.3 601 600 601C566.7 601 533.3 601 500 601C466.7 601 433.3 601 400 601C366.7 601 333.3 601 300 601C266.7 601 233.3 601 200 601C166.7 601 133.3 601 100 601C66.7 601 33.3 601 16.7 601L0 601Z" fill="#4f3546"></path><path d="M0 434L16.7 441.2C33.3 448.3 66.7 462.7 100 470.2C133.3 477.7 166.7 478.3 200 471.7C233.3 465 266.7 451 300 444.3C333.3 437.7 366.7 438.3 400 438.8C433.3 439.3 466.7 439.7 500 446.2C533.3 452.7 566.7 465.3 600 471C633.3 476.7 666.7 475.3 700 471C733.3 466.7 766.7 459.3 800 455.3C833.3 451.3 866.7 450.7 883.3 450.3L900 450L900 601L883.3 601C866.7 601 833.3 601 800 601C766.7 601 733.3 601 700 601C666.7 601 633.3 601 600 601C566.7 601 533.3 601 500 601C466.7 601 433.3 601 400 601C366.7 601 333.3 601 300 601C266.7 601 233.3 601 200 601C166.7 601 133.3 601 100 601C66.7 601 33.3 601 16.7 601L0 601Z" fill="#693e54"></path><path d="M0 488L16.7 486C33.3 484 66.7 480 100 477.8C133.3 475.7 166.7 475.3 200 480.5C233.3 485.7 266.7 496.3 300 501.2C333.3 506 366.7 505 400 502.7C433.3 500.3 466.7 496.7 500 495C533.3 493.3 566.7 493.7 600 496C633.3 498.3 666.7 502.7 700 498.5C733.3 494.3 766.7 481.7 800 477.7C833.3 473.7 866.7 478.3 883.3 480.7L900 483L900 601L883.3 601C866.7 601 833.3 601 800 601C766.7 601 733.3 601 700 601C666.7 601 633.3 601 600 601C566.7 601 533.3 601 500 601C466.7 601 433.3 601 400 601C366.7 601 333.3 601 300 601C266.7 601 233.3 601 200 601C166.7 601 133.3 601 100 601C66.7 601 33.3 601 16.7 601L0 601Z" fill="#844660"></path><path d="M0 532L16.7 531.2C33.3 530.3 66.7 528.7 100 525.8C133.3 523 166.7 519 200 515.5C233.3 512 266.7 509 300 512.8C333.3 516.7 366.7 527.3 400 530.7C433.3 534 466.7 530 500 522.8C533.3 515.7 566.7 505.3 600 501.8C633.3 498.3 666.7 501.7 700 505.2C733.3 508.7 766.7 512.3 800 518.2C833.3 524 866.7 532 883.3 536L900 540L900 601L883.3 601C866.7 601 833.3 601 800 601C766.7 601 733.3 601 700 601C666.7 601 633.3 601 600 601C566.7 601 533.3 601 500 601C466.7 601 433.3 601 400 601C366.7 601 333.3 601 300 601C266.7 601 233.3 601 200 601C166.7 601 133.3 601 100 601C66.7 601 33.3 601 16.7 601L0 601Z" fill="#9f4f69"></path><path d="M0 526L16.7 529.8C33.3 533.7 66.7 541.3 100 546.7C133.3 552 166.7 555 200 552.2C233.3 549.3 266.7 540.7 300 535.8C333.3 531 366.7 530 400 530.7C433.3 531.3 466.7 533.7 500 533.3C533.3 533 566.7 530 600 533.8C633.3 537.7 666.7 548.3 700 552.5C733.3 556.7 766.7 554.3 800 549.8C833.3 545.3 866.7 538.7 883.3 535.3L900 532L900 601L883.3 601C866.7 601 833.3 601 800 601C766.7 601 733.3 601 700 601C666.7 601 633.3 601 600 601C566.7 601 533.3 601 500 601C466.7 601 433.3 601 400 601C366.7 601 333.3 601 300 601C266.7 601 233.3 601 200 601C166.7 601 133.3 601 100 601C66.7 601 33.3 601 16.7 601L0 601Z" fill="#bc5770"></path><path d="M0 571L16.7 571.3C33.3 571.7 66.7 572.3 100 571.8C133.3 571.3 166.7 569.7 200 567.5C233.3 565.3 266.7 562.7 300 561.7C333.3 560.7 366.7 561.3 400 561.7C433.3 562 466.7 562 500 562C533.3 562 566.7 562 600 562.7C633.3 563.3 666.7 564.7 700 565.5C733.3 566.3 766.7 566.7 800 565.2C833.3 563.7 866.7 560.3 883.3 558.7L900 557L900 601L883.3 601C866.7 601 833.3 601 800 601C766.7 601 733.3 601 700 601C666.7 601 633.3 601 600 601C566.7 601 533.3 601 500 601C466.7 601 433.3 601 400 601C366.7 601 333.3 601 300 601C266.7 601 233.3 601 200 601C166.7 601 133.3 601 100 601C66.7 601 33.3 601 16.7 601L0 601Z" fill="#d86174"></path></svg>